<svg width="40" height="40" xmlns="http://www.w3.org/2000/svg">
 <!-- Created with Method Draw - http://github.com/duopixel/Method-Draw/ -->

 <g>
  <title>background</title>
  <rect x="-1" y="-1" width="42" height="42" id="canvas_background" fill="#fff"/>
  <g id="canvasGrid" display="none">
   <rect id="svg_1" width="100%" height="100%" x="0" y="0" stroke-width="0" fill="url(#gridpattern)"/>
  </g>
 </g>
 <g>
  <title>Layer 1</title>
  <g id="svg_6" stroke="null">
   <g transform="matrix(0.06414766819342249,0,0,-0.06869311744791143,143.75419328985276,118.89722271701531) " fill="#000000" id="svg_4">
    <path d="m-2259.20757,1446.97485l0,-330l330,0l330,0l0,330l0,330l-330,0l-330,0l0,-330zm160,178c0,-10 -7,-18 -15,-18c-13,0 -15,-22 -15,-140l0,-140l190,0c163,0 190,2 190,15c0,16 19,14 90,-10l34,-12l-49,-16c-60,-21 -75,-21 -75,-2c0,13 -28,15 -190,15l-190,0l-2,-72l-2,-73l-3,73l-4,72l-47,2l-47,2l48,3l47,4l0,140c0,122 -2,139 -16,139c-18,0 -16,29 7,85l11,30l19,-40c10,-22 19,-48 19,-57zm227,7c24,-17 36,-52 21,-62c-6,-3 -20,6 -30,20c-22,30 -68,37 -88,12c-22,-26 -7,-47 47,-65c68,-22 83,-36 83,-75c0,-52 -29,-80 -85,-80c-39,0 -51,5 -71,28c-13,15 -24,35 -24,43c0,21 28,17 35,-5c7,-24 51,-40 85,-31c20,5 25,12 25,35c0,26 -6,31 -50,48c-27,10 -58,26 -67,34c-24,21 -23,68 2,93c24,24 86,27 117,5z" id="svg_5" stroke="null" fill="#78515b"/>
   </g>
  </g>
 </g>
</svg>