<svg width="423" height="120" xmlns="http://www.w3.org/2000/svg">
 <!-- Created with Method Draw - http://github.com/duopixel/Method-Draw/ -->

 <g>
  <title>background</title>
  <rect fill="none" id="canvas_background" height="122" width="425" y="-1" x="-1"/>
  <g display="none" overflow="visible" y="0" x="0" height="100%" width="100%" id="canvasGrid">
   <rect fill="url(#gridpattern)" stroke-width="0" y="0" x="0" height="100%" width="100%"/>
  </g>
 </g>
 <g>
  <title>Layer 1</title>
  <g stroke="null" id="svg_40">
   <g id="svg_4" fill="#000000" transform="matrix(0.08182229359316485,0,0,-0.0728684317219039,-3407.8675465890965,-1889.6296854415955) ">
    <path fill="#ffffff" stroke="null" id="svg_5" d="m41863.935123,-26106.890234c-24,-65 -45,-124 -48,-130c-3,-9 8,-13 37,-13l41,0l0,-425l0,-425l-105,0c-98,0 -105,-1 -105,-20c0,-19 7,-20 105,-20l105,0l0,-170c0,-163 1,-170 20,-170c19,0 20,7 20,170l0,170l2289,0l2290,0l3,-39l3,-38l102,46c56,25 103,49 103,52c0,4 -149,76 -202,97c-4,2 -8,-15 -8,-37l0,-41l-2290,0l-2290,0l0,425l0,425l41,0c30,0 40,4 36,13c-3,7 -24,66 -48,130c-23,64 -45,117 -49,117c-4,0 -26,-53 -50,-117z"/>
    <path fill="#ffffff" stroke="null" id="svg_6" d="m42326.935123,-26213.890234c-94,-30 -151,-108 -139,-190c10,-66 57,-113 176,-176c122,-66 160,-104 160,-161c0,-104 -147,-139 -286,-70l-54,28l0,-43c0,-37 4,-46 28,-58c42,-22 150,-35 215,-26c104,15 168,66 183,146c17,94 -36,166 -176,239c-114,58 -148,87 -156,131c-8,46 7,79 48,104c45,27 156,27 216,0l42,-19l0,44c0,42 -1,44 -37,54c-51,15 -169,13 -220,-3z"/>
    <path fill="#ffffff" stroke="null" id="svg_7" d="m42673.935123,-26214.890234c0,-3 46,-96 103,-208l102,-202l5,-140l5,-140l35,0l35,0l5,135l5,135l94,180c52,99 103,195 113,213l20,32l-46,0l-46,0l-88,-176l-88,-176l-48,98c-26,55 -64,134 -83,177l-36,77l-43,0c-24,0 -44,-2 -44,-5z"/>
    <path fill="#ffffff" stroke="null" id="svg_8" d="m43293.935123,-26559.890234l0,-350l40,0l40,0l0,302l0,302l60,-95c34,-51 123,-186 198,-299l137,-205l45,0l45,0l3,348l2,347l-40,0l-41,0l3,-290c2,-160 1,-290 -2,-290c-3,0 -90,131 -194,290l-188,290l-54,0l-54,0l0,-350z"/>
    <path fill="#ffffff" stroke="null" id="svg_9" d="m44045.935123,-26556.890234l3,-348l185,0l185,0l3,33l3,32l-150,0l-151,0l0,125c0,93 3,125 13,125c6,1 64,2 127,3l115,2l3,33l3,32l-130,0l-131,0l0,120l0,120l118,1c64,1 127,0 140,-1c19,-1 22,3 22,34l0,36l-180,0l-180,0l2,-347z"/>
    <path fill="#ffffff" stroke="null" id="svg_10" d="m44555.935123,-26556.890234l3,-348l35,0l35,0l3,148l3,147l64,0c62,0 67,-2 102,-37c20,-21 66,-87 102,-148l66,-110l43,-3c26,-2 42,1 42,8c0,20 -153,254 -188,288l-34,32l34,15c47,19 105,86 114,130c16,88 -24,172 -100,206c-34,15 -66,19 -184,19l-142,0l2,-347zm291,254c48,-31 61,-100 30,-164c-23,-49 -77,-72 -170,-73l-73,0l0,128c0,71 2,131 4,133c2,2 44,2 93,-1c62,-3 97,-10 116,-23z"/>
    <path fill="#ffffff" stroke="null" id="svg_11" d="m45155.935123,-26556.890234l3,-348l188,-3l187,-2l0,35l0,35l-150,0l-150,0l0,128l0,127l130,-3l130,-3l0,35l0,36l-130,0l-130,0l0,120l0,120l140,0l140,0l0,35l0,35l-180,0l-180,0l2,-347z"/>
    <path fill="#ffffff" stroke="null" id="svg_12" d="m45665.935123,-26556.890234l3,-348l35,0l35,0l3,298l2,299l113,-174c62,-95 151,-230 198,-301l84,-127l45,2l45,3l3,348l2,347l-40,0l-40,0l0,-292l0,-293l-103,155c-56,85 -142,217 -191,293l-90,137l-53,0l-53,0l2,-347z"/>
    <path fill="#ffffff" stroke="null" id="svg_13" d="m42769.935123,-27216.890234c-2,-10 -10,-45 -16,-78c-6,-33 -14,-68 -16,-77c-4,-13 0,-18 14,-18c15,0 21,12 30,65c7,36 15,78 18,95c5,23 3,30 -9,30c-9,0 -18,-8 -21,-17z"/>
    <path fill="#ffffff" stroke="null" id="svg_14" d="m42843.935123,-27217.890234c0,-10 7,-19 15,-19c8,0 15,9 15,19c0,10 -7,18 -15,18c-8,0 -15,-8 -15,-18z"/>
    <path fill="#ffffff" stroke="null" id="svg_15" d="m43333.935123,-27219.890234c0,-11 7,-20 15,-20c8,0 15,9 15,20c0,11 -7,20 -15,20c-8,0 -15,-9 -15,-20z"/>
    <path fill="#ffffff" stroke="null" id="svg_16" d="m44003.935123,-27219.890234c0,-11 7,-20 15,-20c8,0 15,9 15,20c0,11 -7,20 -15,20c-8,0 -15,-9 -15,-20z"/>
    <path fill="#ffffff" stroke="null" id="svg_17" d="m44239.935123,-27216.890234c-2,-10 -10,-45 -16,-78c-6,-33 -14,-68 -16,-77c-4,-13 0,-18 14,-18c13,0 21,9 26,28c7,32 42,80 51,70c4,-4 3,-27 -3,-52c-8,-41 -8,-46 8,-46c13,0 20,13 28,52c5,28 8,58 5,65c-9,22 -40,15 -63,-14l-21,-28l6,35c4,19 9,45 12,58c6,27 -23,32 -31,5z"/>
    <path fill="#ffffff" stroke="null" id="svg_18" d="m44905.935123,-27234.890234c-21,-22 -38,-32 -47,-28c-9,3 -26,-4 -41,-17l-24,-23l0,21c0,32 -27,27 -34,-5c-17,-89 -18,-103 -5,-103c8,1 23,19 34,42c11,23 29,47 40,52c11,6 22,14 25,18c3,4 12,3 19,-2c12,-7 12,-18 3,-66c-15,-75 -15,-94 2,-94c9,0 18,22 25,63c17,89 19,94 44,102l22,8l-22,4c-19,4 -21,8 -13,24c6,10 20,19 30,19c11,0 20,5 20,10c0,23 -49,8 -78,-25z"/>
    <path fill="#ffffff" stroke="null" id="svg_19" d="m42435.935123,-27224.890234c-9,-13 -31,-113 -31,-142c-1,-21 3,-23 53,-23c67,0 103,26 116,85c11,50 -8,85 -48,86c-15,0 -40,2 -55,3c-16,1 -31,-3 -35,-9zm96,-27c18,-18 15,-49 -8,-85c-15,-26 -26,-33 -51,-33l-32,0l7,50c4,28 9,57 12,65c7,18 55,20 72,3z"/>
    <path fill="#ffffff" stroke="null" id="svg_20" d="m43817.935123,-27217.890234c-6,-4 -16,-36 -23,-72c-7,-36 -14,-73 -17,-82c-4,-13 0,-18 14,-18c16,0 22,9 27,40c7,39 8,40 47,40l40,0l-7,-41c-6,-36 -5,-40 11,-37c14,2 21,20 31,77c16,84 11,118 -13,87c-8,-11 -14,-30 -14,-43c0,-20 -5,-23 -41,-23l-41,0l6,34c7,35 -2,50 -20,38z"/>
    <path fill="#ffffff" stroke="null" id="svg_21" d="m44462.935123,-27304.890234c-14,-80 -14,-85 2,-85c13,0 20,11 25,35c5,28 11,35 29,35c36,0 77,38 73,69c-3,24 -7,26 -58,29l-55,3l-16,-86zm89,44c-3,-23 -33,-48 -44,-37c-3,4 -4,19 0,33c8,33 49,36 44,4z"/>
    <path fill="#ffffff" stroke="null" id="svg_22" d="m42622.935123,-27288.890234c-37,-37 -40,-87 -6,-100c30,-11 84,-2 91,15c3,8 4,14 3,14c-1,0 -16,-4 -34,-9c-23,-7 -35,-6 -42,3c-8,9 -1,17 28,29c38,17 52,39 44,65c-8,22 -54,13 -84,-17zm51,-6c0,-16 -27,-32 -37,-21c-7,7 16,36 28,36c5,0 9,-7 9,-15z"/>
    <path fill="#ffffff" stroke="null" id="svg_23" d="m42824.935123,-27309.890234c-14,-67 -14,-80 3,-80c9,0 18,19 25,50c14,67 14,80 -3,80c-9,0 -18,-19 -25,-50z"/>
    <path fill="#ffffff" stroke="null" id="svg_24" d="m42904.935123,-27306.890234c4,-27 8,-56 8,-65c1,-11 9,-18 20,-18c12,0 33,22 60,65c22,36 35,65 28,65c-7,0 -25,-21 -42,-47l-29,-48l-10,48c-7,33 -14,47 -26,47c-14,0 -16,-7 -9,-47z"/>
    <path fill="#ffffff" stroke="null" id="svg_25" d="m43059.935123,-27290.890234c-35,-41 -35,-86 -1,-99c30,-11 85,-2 85,14c0,6 -16,11 -35,11c-39,0 -53,18 -18,23c28,4 64,48 56,68c-10,26 -59,16 -87,-17zm54,-4c0,-8 -9,-19 -20,-25c-15,-8 -20,-8 -20,3c0,14 19,37 32,37c4,0 8,-7 8,-15z"/>
    <path fill="#ffffff" stroke="null" id="svg_26" d="m43200.935123,-27266.890234c-2,-5 -7,-26 -11,-48c-4,-22 -9,-48 -12,-57c-4,-13 0,-18 15,-18c15,0 21,6 21,22c0,24 46,78 67,78c7,0 13,7 13,15c0,22 -18,18 -46,-10l-24,-24l6,24c5,19 2,25 -9,25c-9,0 -18,-3 -20,-7z"/>
    <path fill="#ffffff" stroke="null" id="svg_27" d="m43319.935123,-27286.890234c-18,-92 -18,-103 -3,-103c14,0 37,72 37,115c0,27 -28,16 -34,-12z"/>
    <path fill="#ffffff" stroke="null" id="svg_28" d="m43400.935123,-27266.890234c-2,-5 -7,-26 -11,-48c-4,-22 -9,-48 -12,-57c-11,-38 24,-16 47,29c35,67 52,68 43,4c-5,-42 -4,-51 8,-51c16,0 40,92 31,117c-8,20 -31,15 -59,-12l-24,-24l6,24c5,19 2,25 -9,25c-9,0 -18,-3 -20,-7z"/>
    <path fill="#ffffff" stroke="null" id="svg_29" d="m43568.935123,-27283.890234c-63,-63 -31,-144 33,-83l24,22l-8,-30c-10,-45 -14,-48 -56,-42c-27,4 -38,2 -35,-6c2,-7 21,-13 43,-15c52,-4 72,18 90,100c7,35 13,66 14,71c0,4 -18,7 -40,7c-30,0 -47,-7 -65,-24zm65,-10c0,-20 -39,-66 -57,-66c-10,0 -13,6 -9,16c3,9 6,19 6,24c0,14 30,40 46,40c8,0 14,-6 14,-14z"/>
    <path fill="#ffffff" stroke="null" id="svg_30" d="m43989.935123,-27286.890234c-18,-92 -18,-103 -3,-103c14,0 37,72 37,115c0,27 -28,16 -34,-12z"/>
    <path fill="#ffffff" stroke="null" id="svg_31" d="m44080.935123,-27285.890234c-26,-26 -43,-76 -32,-94c10,-16 44,-11 65,10c22,22 25,15 10,-25c-9,-24 -15,-27 -45,-23c-24,3 -35,0 -35,-9c0,-17 70,-17 94,0c10,7 23,40 31,77c20,91 20,90 -24,90c-28,0 -45,-7 -64,-26zm63,-8c0,-16 -38,-66 -51,-66c-14,0 -11,33 7,58c17,24 44,30 44,8z"/>
    <path fill="#ffffff" stroke="null" id="svg_32" d="m44640.935123,-27270.890234c-19,-11 -47,-60 -47,-83c0,-27 44,-48 81,-39c18,5 34,14 36,20c3,9 -4,10 -24,4c-15,-4 -34,-6 -40,-4c-20,7 -15,33 5,33c30,0 63,30 60,53c-3,25 -42,34 -71,16zm43,-18c0,-11 -42,-43 -48,-37c-2,3 1,14 8,25c11,21 40,29 40,12z"/>
    <path fill="#ffffff" stroke="null" id="svg_33" d="m44998.935123,-27285.890234c-35,-37 -34,-91 0,-104c47,-18 105,27 105,83c0,52 -64,65 -105,21zm71,-9c4,-9 1,-29 -6,-46c-9,-22 -18,-29 -34,-27c-27,4 -32,32 -12,63c18,28 44,33 52,10z"/>
    <path fill="#ffffff" stroke="null" id="svg_34" d="m45148.935123,-27271.890234c-9,-29 -23,-113 -20,-117c9,-9 35,10 35,26c0,20 48,73 67,73c7,0 13,7 13,15c0,23 -18,18 -46,-12l-26,-28l7,28c6,21 4,27 -9,27c-9,0 -18,-6 -21,-12z"/>
    <path fill="#ffffff" stroke="null" id="svg_35" d="m45264.935123,-27309.890234c-15,-67 -14,-80 4,-80c8,0 15,9 15,19c0,23 48,83 60,76c4,-3 4,-22 -1,-42c-12,-51 -11,-53 6,-53c8,0 15,6 15,13c0,18 49,87 61,87c10,0 7,-32 -7,-82c-7,-22 21,-25 30,-3c3,8 8,37 12,65c6,45 5,50 -13,50c-11,0 -28,-9 -39,-21l-18,-20l-8,20c-10,28 -32,26 -61,-5l-25,-26l5,26c4,19 1,26 -10,26c-10,0 -19,-16 -26,-50z"/>
    <path fill="#ffffff" stroke="null" id="svg_36" d="m45526.935123,-27281.890234c-31,-35 -45,-67 -38,-88c9,-27 50,-26 69,2l16,22l0,-22c0,-43 28,-23 39,28c17,78 16,80 -27,80c-27,0 -45,-7 -59,-22zm62,-8c3,-5 -10,-26 -30,-47l-37,-38l6,34c9,52 43,80 61,51z"/>
    <path fill="#ffffff" stroke="null" id="svg_37" d="m45670.935123,-27266.890234c-2,-5 -7,-26 -11,-48c-4,-22 -9,-48 -12,-57c-4,-13 0,-18 14,-18c13,0 21,9 26,28c7,32 42,80 51,70c4,-4 3,-27 -3,-52c-9,-41 -8,-46 8,-46c14,0 20,13 28,58c5,31 8,60 5,65c-10,16 -43,6 -63,-20l-22,-28l7,28c6,21 4,27 -8,27c-9,0 -18,-3 -20,-7z"/>
    <path fill="#ffffff" stroke="null" id="svg_38" d="m45832.935123,-27288.890234c-30,-31 -40,-83 -18,-97c18,-11 70,-7 83,6c8,9 4,11 -18,8c-39,-4 -53,19 -35,58c10,20 23,30 42,32c34,4 36,22 1,22c-15,0 -38,-12 -55,-29z"/>
    <path fill="#ffffff" stroke="null" id="svg_39" d="m45969.935123,-27281.890234c-15,-13 -29,-37 -32,-55c-5,-26 -2,-34 18,-47c28,-18 83,-12 92,9c3,9 -4,11 -29,5c-24,-5 -38,-4 -45,5c-12,15 -7,19 32,29c51,12 61,76 12,76c-12,0 -34,-10 -48,-22zm44,-13c0,-16 -27,-32 -37,-21c-7,7 16,36 28,36c5,0 9,-7 9,-15z"/>
   </g>
  </g>
 </g>
</svg>